{"title":"De Hel van 63-AC3-5,1-DVDRip-2009-","uid":5478506,"size":1463433947,"categoryP":"video","categoryS":"movies","magnet":"?xt=urn:btih:a91d44a4113e298578449565d2a798fa666ab471&amp;dn=De+Hel+van+63-AC3-5%2C1-DVDRip-2009-&amp;tr=udp%3A%2F%2Ftracker.openbittorrent.com%3A80&amp;tr=udp%3A%2F%2Fopen.demonii.com%3A1337&amp;tr=udp%3A%2F%2Ftracker.coppersurfer.tk%3A6969&amp;tr=udp%3A%2F%2Fexodus.desync.com%3A6969","seeders":0,"leechers":1,"uploader":"FatFreddy31","files":-1,"time":1270283307,"description":" &lt;a href=&quot;http://www.imdb.com/title/tt1156132/&quot; rel=&quot;nofollow&quot; target=&quot;_NEW&quot;&gt;http://www.imdb.com/title/tt1156132/&lt;/a&gt;\n &lt;a href=&quot;\nhttp://www.moviemeter.nl/film/56502&quot; rel=&quot;nofollow&quot; target=&quot;_NEW&quot;&gt;\nhttp://www.moviemeter.nl/film/56502&lt;/a&gt;\n\nUser Rating:6.6/10 - 43 votes\n\nNederland\nDrama\n100 minuten\n\nGeregisseerd door Steven de Jong\nMet Cas Jansen, Chris Zegers en Chava Voor in 't Holt\n\nJanuari 1963. Ondanks het barre weer besluit het bestuur van het Friese ElfstedencomitÃƒÂ©, onder druk van de media, met de kleinst mogelijke \nmeerderheid van stemmen, dat de Elstedentocht doorgaat. Tussen de duizenden die een startbewijs veroveren bevinden zich soldaat Henk Buma (Cas Janssen), boerenzoon Sjoerd Lelkama (Lourens van den Akker), arbeider Kees Ferwerda (Chris Zegers) en verpleegkundige Annemiek (Chava voor in 't Holt). Alle vier hebben zo hun reden om deze tocht der tochten te rijden. Door de dramatische en heroÃƒÂ¯sche gebeurtenissen zal deze Elfstedentocht, ook voor Henk, Sjoerd, Kees en Annemiek, als een van de meest legendarische de geschiedenis in gaan..\n\nInfo:\n\nDVD Hoesje bijgesloten.\n\nEventuele ondertitels: Nederlandse en Engels (srt)\n\nGeneral\nComplete name                    : De Hel van 63-AC3-5,1-DVDRip-2009.avi\nFormat                           : AVI\nFormat/Info                      : Audio Video Interleave\nFile size                        : 1.36 GiB\nDuration                         : 1h 43mn\nOverall bit rate                 : 1 877 Kbps\nWriting application              : VirtualDubMod 1.5.4.1 (build 2178/release)\nWriting library                  : VirtualDubMod build 2178/release\n\nVideo\nID                               : 0\nFormat                           : MPEG-4 Visual\nFormat profile                   : Simple@L3\nFormat settings, BVOP            : No\nFormat settings, QPel            : No\nFormat settings, GMC             : No warppoints\nFormat settings, Matrix          : Default (H.263)\nCodec ID                         : XVID\nCodec ID/Hint                    : XviD\nDuration                         : 1h 43mn\nBit rate                         : 1 419 Kbps\nWidth                            : 640 pixels\nHeight                           : 352 pixels\nDisplay aspect ratio             : 16:9\nFrame rate                       : 25.000 fps\nResolution                       : 24 bits\nColorimetry                      : 4:2:0\nScan type                        : Progressive\nBits/(Pixel*Frame)               : 0.252\nStream size                      : 1.03 GiB (76%)\nWriting library                  : XviD 1.1.2 (UTC 2006-11-01)\n\nAudio\nID                               : 1\nFormat                           : AC-3\nFormat/Info                      : Audio Coding 3\nCodec ID                         : 2000\nDuration                         : 1h 43mn\nBit rate mode                    : Constant\nBit rate                         : 448 Kbps\nChannel(s)                       : 6 channels\nChannel positions                : Front: L C R, Surround: L R, LFE\nSampling rate                    : 48.0 KHz\nStream size                      : 333 MiB (24%)\nAlignment                        : Split accross interleaves\nInterleave, duration             : 40 ms (1.00 video frame)\nInterleave, preload duration     : 500 ms\n\nEnjoy..","torrent":{"xt":"urn:btih:a91d44a4113e298578449565d2a798fa666ab471","amp;dn":"De+Hel+van+63-AC3-5%2C1-DVDRip-2009-","amp;tr":["udp%3A%2F%2Ftracker.openbittorrent.com%3A80","udp%3A%2F%2Fopen.demonii.com%3A1337","udp%3A%2F%2Ftracker.coppersurfer.tk%3A6969","udp%3A%2F%2Fexodus.desync.com%3A6969"],"infoHash":"a91d44a4113e298578449565d2a798fa666ab471","infoHashBuffer":{"type":"Buffer","data":[169,29,68,164,17,62,41,133,120,68,149,101,210,167,152,250,102,106,180,113]},"announce":[],"urlList":[]}}